<svg xmlns="http://www.w3.org/2000/svg" viewBox="0 0 100 80" width="800" height="640"><polygon points="100,80 0,80 0,0 100,0" fill="#f5f7fa" stroke="#526071" stroke-width="0.25"/><g transform="translate(42.00000000000004 240) rotate(270)"><polygon points="240,31 212,31 212,58 200,58 200,20 240,20" fill="#3478be" stroke="#263646" stroke-width="0.25"><title>Part 0</title></polygon></g><g transform="translate(292 -620) rotate(90)"><polygon points="660,241 632,241 632,268 620,268 620,230 660,230" fill="#e79d36" stroke="#263646" stroke-width="0.25"><title>Part 6</title></polygon></g><g transform="translate(461 76.99999999999994) rotate(180)"><polygon points="442,31 422,31 422,65 410,65 410,20 442,20" fill="#e79d36" stroke="#263646" stroke-width="0.25"><title>Part 1</title></polygon></g><g transform="translate(325.99999999999994 -790) rotate(90)"><polygon points="862,241 842,241 842,275 830,275 830,230 862,230" fill="#4da786" stroke="#263646" stroke-width="0.25"><title>Part 7</title></polygon></g><g transform="translate(-221.99999999999994 269.00000000000006) rotate(270)"><polygon points="236,241 212,241 212,265 200,265 200,230 236,230" fill="#7d6cc4" stroke="#263646" stroke-width="0.25"><title>Part 4</title></polygon></g></svg>